#N canvas 886 115 832 642 12;
#X obj 26 20 tgl 19 0 empty empty empty 0 -10 0 12 #fcfcfc #000000 #000000 0 1;
#X msg 26 49 \; pd dsp \$1;
#X floatatom 29 107 5 0 0 1 Base\ Frequency - baseFreq-\$0 16;
#N canvas 309 371 848 460 oscillator1 0;
#X obj 17 9 vradio 19 1 0 4 empty empty empty 0 -10 0 12 #fcfcfc #000000 #000000 0;
#X obj 442 178 route 0 1 2 3;
#X obj 442 210 tgl 18 0 empty empty empty 17 7 0 10 #fcfcfc #000000 #000000 0 1;
#X obj 464 210 tgl 18 0 empty empty empty 17 7 0 10 #fcfcfc #000000 #000000 0 1;
#X obj 486 210 tgl 18 0 empty empty empty 17 7 0 10 #fcfcfc #000000 #000000 0 1;
#X obj 508 210 tgl 18 0 empty empty empty 17 7 0 10 #fcfcfc #000000 #000000 0 1;
#X obj 419 98 t f f b;
#X obj 442 144 f -1;
#X obj 339 348 *~;
#X obj 398 348 *~;
#X obj 457 348 *~;
#X obj 509 348 *~;
#X obj 338 412 throw~ wave;
#X obj 42 236 catch~ wave;
#X obj 71 271 catch~ pmw;
#X obj 71 318 *~;
#X obj 17 164 hsl 162 19 0 1 0 0 empty empty empty -2 -10 0 12 #fcfcfc #000000 #000000 0 1;
#X obj 41 351 +~;
#X obj 338 388 *~ 1;
#X text 44 9 Sine;
#X text 46 29 Sawtooth;
#X text 46 49 Triangle;
#X text 48 69 Square;
#X obj 41 375 throw~ oscillator_1;
#X obj 15 99 pwm;
#X obj 244 56 r baseFreq-\$0;
#X obj 248 201 throw~ pmw;
#X text 185 165 Level;
#X text 217 125 PWM;
#X obj 398 269 catch~ \$0-saw;
#X obj 457 294 catch~ \$0-tri;
#X obj 508 320 catch~ \$0-sqr;
#X obj 270 2 loadbang;
#X msg 270 26 0;
#X obj 531 5 inlet~;
#X obj 531 29 snake~ out 4;
#X obj 531 137 throw~ \$0-sine;
#X obj 559 109 throw~ \$0-saw;
#X obj 586 83 throw~ \$0-tri;
#X obj 612 57 throw~ \$0-sqr;
#X obj 340 242 catch~ \$0-sine;
#X connect 0 0 6 0;
#X connect 1 0 2 0;
#X connect 1 1 3 0;
#X connect 1 2 4 0;
#X connect 1 3 5 0;
#X connect 2 0 8 1;
#X connect 3 0 9 1;
#X connect 4 0 10 1;
#X connect 5 0 11 1;
#X connect 6 0 7 1;
#X connect 6 1 7 0;
#X connect 6 2 7 0;
#X connect 7 0 1 0;
#X connect 8 0 18 0;
#X connect 9 0 18 0;
#X connect 10 0 18 0;
#X connect 11 0 18 0;
#X connect 13 0 17 0;
#X connect 14 0 15 0;
#X connect 15 0 17 1;
#X connect 16 0 15 1;
#X connect 17 0 23 0;
#X connect 18 0 12 0;
#X connect 24 0 26 0;
#X connect 25 0 24 0;
#X connect 29 0 9 0;
#X connect 30 0 10 0;
#X connect 31 0 11 0;
#X connect 32 0 33 0;
#X connect 33 0 0 0;
#X connect 34 0 35 0;
#X connect 35 0 36 0;
#X connect 35 1 37 0;
#X connect 35 2 38 0;
#X connect 35 3 39 0;
#X connect 40 0 8 0;
#X coords 0 -1 1 1 250 200 2 0 0;
#X restore 28 207 pd oscillator1;
#N canvas 455 380 921 541 oscillator2 0;
#X obj 17 9 vradio 19 1 0 4 empty empty empty 0 -10 0 12 #fcfcfc #000000 #000000 0;
#X obj 442 178 route 0 1 2 3;
#X obj 442 210 tgl 18 0 empty empty empty 17 7 0 10 #fcfcfc #000000 #000000 0 1;
#X obj 464 210 tgl 18 0 empty empty empty 17 7 0 10 #fcfcfc #000000 #000000 0 1;
#X obj 486 210 tgl 18 0 empty empty empty 17 7 0 10 #fcfcfc #000000 #000000 0 1;
#X obj 508 210 tgl 18 0 empty empty empty 17 7 0 10 #fcfcfc #000000 #000000 0 1;
#X obj 419 98 t f f b;
#X obj 442 144 f -1;
#X obj 339 348 *~;
#X obj 398 348 *~;
#X obj 457 348 *~;
#X obj 509 348 *~;
#X obj 71 318 *~;
#X obj 17 164 hsl 162 19 0 1 0 0 empty empty empty -2 -10 0 12 #fcfcfc #000000 #000000 0 1;
#X obj 41 351 +~;
#X obj 338 388 *~ 1;
#X text 44 9 Sine;
#X text 46 29 Sawtooth;
#X text 46 49 Triangle;
#X text 48 69 Square;
#X obj 15 99 pwm;
#X text 185 165 Level;
#X obj 41 375 throw~ oscillator_2;
#X obj 42 236 catch~ wave2;
#X obj 338 412 throw~ wave2;
#X text 217 125 PWM;
#X obj 248 201 throw~ pwm2;
#X obj 71 271 catch~ pwm2;
#X obj 270 2 loadbang;
#X msg 270 26 0;
#X obj 522 12 inlet~;
#X obj 522 36 snake~ out 4;
#X obj 340 242 catch~ \$0-sine2;
#X obj 398 269 catch~ \$0-saw2;
#X obj 457 294 catch~ \$0-tri2;
#X obj 508 320 catch~ \$0-sqr2;
#X obj 603 64 throw~ \$0-sqr2;
#X obj 577 90 throw~ \$0-tri2;
#X obj 550 116 throw~ \$0-saw2;
#X obj 522 144 throw~ \$0-sine2;
#X obj 242 49 r freqOffset-\$0;
#X connect 0 0 6 0;
#X connect 1 0 2 0;
#X connect 1 1 3 0;
#X connect 1 2 4 0;
#X connect 1 3 5 0;
#X connect 2 0 8 1;
#X connect 3 0 9 1;
#X connect 4 0 10 1;
#X connect 5 0 11 1;
#X connect 6 0 7 1;
#X connect 6 1 7 0;
#X connect 6 2 7 0;
#X connect 7 0 1 0;
#X connect 8 0 15 0;
#X connect 9 0 15 0;
#X connect 10 0 15 0;
#X connect 11 0 15 0;
#X connect 12 0 14 1;
#X connect 13 0 12 1;
#X connect 14 0 22 0;
#X connect 15 0 24 0;
#X connect 20 0 26 0;
#X connect 23 0 14 0;
#X connect 27 0 12 0;
#X connect 28 0 29 0;
#X connect 29 0 0 0;
#X connect 30 0 31 0;
#X connect 31 0 39 0;
#X connect 31 1 38 0;
#X connect 31 2 37 0;
#X connect 31 3 36 0;
#X connect 32 0 8 0;
#X connect 33 0 9 0;
#X connect 34 0 10 0;
#X connect 35 0 11 0;
#X connect 40 0 20 0;
#X coords 0 -1 1 1 250 200 2 0 0;
#X restore 291 207 pd oscillator2;
#X text 37 182 Oscillator 1;
#X obj 178 460 catch~ oscillator_1;
#X obj 321 423 catch~ oscillator_2;
#X obj 35 530 *~ 0.1;
#X obj 36 571 dac~;
#N canvas 923 297 628 320 bandlimited_ossillators 0;
#X obj 14 175 blSine;
#X obj 66 175 blSaw;
#X obj 111 174 blTri;
#X obj 157 174 blSqr;
#X obj 14 28 r baseFreq-\$0;
#X obj 15 215 snake~ 4;
#X obj 145 28 r freqOffset-\$0;
#X obj 210 98 +;
#X obj 16 245 outlet~;
#X obj 210 173 blSine;
#X obj 262 173 blSaw;
#X obj 307 172 blTri;
#X obj 353 172 blSqr;
#X obj 211 213 snake~ 4;
#X obj 212 243 outlet~;
#X obj 145 56 t b f;
#X connect 0 0 5 0;
#X connect 1 0 5 1;
#X connect 2 0 5 2;
#X connect 3 0 5 3;
#X connect 4 0 0 0;
#X connect 4 0 1 0;
#X connect 4 0 2 0;
#X connect 4 0 3 0;
#X connect 4 0 7 0;
#X connect 5 0 8 0;
#X connect 6 0 15 0;
#X connect 7 0 9 0;
#X connect 7 0 10 0;
#X connect 7 0 11 0;
#X connect 7 0 12 0;
#X connect 9 0 13 0;
#X connect 10 0 13 1;
#X connect 11 0 13 2;
#X connect 12 0 13 3;
#X connect 13 0 14 0;
#X connect 15 0 7 0;
#X connect 15 1 7 1;
#X coords 0 320 1 319 85 60 0;
#X restore 27 140 pd bandlimited_ossillators;
#X f 38;
#X floatatom 300 178 5 0 0 1 Frequency\ Offset\ Osc\ II - freqOffset-\$0 16;
#X obj 35 443 hradio 19 1 0 2 empty empty FM\ or\ Ring 0 -10 0 8 #fcfcfc #000000 #000000 0;
#X obj 36 498 expr~ if ($v1 == 0 \, $v2 + $v3 \, $v2 * $v3);
#X obj 35 467 sig~;
#X obj 320 472 *~;
#X floatatom 381 476 5 0.01 0.99 0 - - - 0;
#X obj 384 446 hsl 162 19 0.01 0.99 0 0 empty empty empty -2 -10 0 12 #fcfcfc #000000 #000000 0 1;
#X connect 0 0 1 0;
#X connect 6 0 13 1;
#X connect 7 0 15 0;
#X connect 8 0 9 0;
#X connect 8 0 9 1;
#X connect 10 0 3 0;
#X connect 10 1 4 0;
#X connect 12 0 14 0;
#X connect 13 0 8 0;
#X connect 14 0 13 0;
#X connect 15 0 13 2;
#X connect 16 0 15 1;
#X connect 17 0 16 0;
